<svg width="16" height="16" viewBox="0 0 16 16" fill="none" xmlns="http://www.w3.org/2000/svg">
<circle cx="7.90247" cy="7.90247" r="7.40247" stroke="#004032"/>
<path d="M7.91166 5.78462C7.63876 5.78462 7.41012 5.6998 7.22573 5.53016C7.04871 5.35315 6.96021 5.13557 6.96021 4.87742C6.96021 4.61927 7.04871 4.40538 7.22573 4.23574C7.41012 4.05872 7.63876 3.97021 7.91166 3.97021C8.18456 3.97021 8.40952 4.05872 8.58653 4.23574C8.77092 4.40538 8.86312 4.61927 8.86312 4.87742C8.86312 5.13557 8.77092 5.35315 8.58653 5.53016C8.40952 5.6998 8.18456 5.78462 7.91166 5.78462ZM8.67504 6.51481V12.644H7.12616V6.51481H8.67504Z" fill="#004032"/>
</svg>
